# xmcd
#
# Track frame offsets: 
#        150
#        21584
#        45256
#        74339
#        94487
#        115350
#        135242
#        164528
#        180114
#        197464
#
# Disc length: 2942 seconds
#
# Revision: 2
# Processed by: cddbd v1.5.1PL2 Copyright (c) Steve Scherf et al.
# Submitted via: ExactAudioCopy v0.95a5
#
DISCID=800b7c0a
DTITLE=Lampano Alley - Songs From The Alley
DYEAR=1900
DGENRE=Blues
TTITLE0=You've Got A Hold On Me
TTITLE1=Mess It Up
TTITLE2=Losing You
TTITLE3=Major Fool
TTITLE4=I Get Weary
TTITLE5=Trouble
TTITLE6=I've Got the Blues To Keep Me Warm
TTITLE7=Barking Up The Wrong Tree
TTITLE8=Alley Song
TTITLE9=Ganyan Lang
EXTD=
EXTT0=
EXTT1=
EXTT2=
EXTT3=
EXTT4=
EXTT5=
EXTT6=
EXTT7=
EXTT8=
EXTT9=
PLAYORDER=
